<svg xmlns="http://www.w3.org/2000/svg" width="1376" height="768" viewBox="0 0 1376 768" version="1.1"><path d="M 1138.749 242.076 C 1117.743 244.677, 1094.543 253.448, 1076.074 265.772 C 1063.958 273.857, 1045.984 292.024, 1037.696 304.561 C 1026.412 321.631, 1018.876 340.566, 1015.568 360.161 C 1013.437 372.788, 1013.419 396.005, 1015.531 408.181 C 1025.707 466.830, 1071.125 512.818, 1130.500 524.593 C 1144.041 527.278, 1171.164 527.088, 1184.500 524.215 C 1198.861 521.120, 1205.914 518.666, 1219.672 511.974 C 1260.331 492.197, 1289.821 452.638, 1297.554 407.500 C 1299.797 394.402, 1299.780 373.662, 1297.514 360.500 C 1292.277 330.072, 1279.270 305.138, 1257.062 282.948 C 1236.290 262.194, 1216.162 251.113, 1187 244.381 C 1174.896 241.587, 1151.662 240.477, 1138.749 242.076 M 463.500 320.407 C 454.899 322.087, 443.841 326.203, 438.500 329.712 C 431.550 334.278, 421.938 344.263, 418.006 351 C 411.348 362.408, 409.492 369.649, 409.551 384 C 409.595 394.827, 409.952 397.504, 412.220 404 C 415.821 414.316, 419.308 420.187, 426.224 427.580 C 436.912 439.006, 449.976 445.571, 466.967 448.055 C 490.160 451.447, 511.844 445.027, 526.386 430.463 L 531.272 425.570 527.239 422.035 C 525.021 420.091, 520.533 416.156, 517.266 413.292 L 511.325 408.083 507.412 412.097 C 496.370 423.427, 476.823 426.644, 461.539 419.646 C 437.302 408.551, 431.622 374.536, 450.801 355.357 C 465.318 340.840, 491.794 340.702, 506.538 355.066 C 508.759 357.230, 510.944 359, 511.394 359 C 511.844 359, 516.496 355.067, 521.733 350.261 L 531.253 341.521 524.960 335.733 C 518.075 329.400, 507.847 323.892, 498.500 321.484 C 489.964 319.285, 472.064 318.734, 463.500 320.407 M 746.477 319.919 C 738.390 321.218, 730.125 323.913, 722.560 327.715 C 712.582 332.731, 700.593 344.884, 695.643 355 C 679.923 387.132, 692.891 425.990, 724.474 441.390 C 736.188 447.102, 742.658 448.429, 758.500 448.371 C 770.393 448.327, 773.706 447.952, 780.513 445.879 C 798.766 440.318, 813.489 428.253, 820.822 412.846 C 826.055 401.854, 827.471 395.575, 827.441 383.500 C 827.396 365.702, 821.447 351.220, 809.114 338.885 C 800.611 330.381, 792.030 325.427, 779.821 321.978 C 771.667 319.674, 754.574 318.619, 746.477 319.919 M 284.242 321.650 L 281.985 322.141 282.242 384.321 L 282.500 446.500 297 446.500 L 311.500 446.500 311.773 428.750 L 312.046 411 325.773 411.037 L 339.500 411.074 351.410 429.037 L 363.321 447 379.160 447 C 387.872 447, 395 446.621, 395 446.158 C 395 445.695, 389.153 436.808, 382.006 426.408 C 374.860 416.009, 369.010 406.984, 369.006 406.354 C 369.003 405.724, 371.226 403.780, 373.947 402.034 C 389.018 392.363, 396.160 373.552, 391.522 355.746 C 387.257 339.370, 378.066 330.058, 360.500 324.314 C 352.614 321.736, 352.028 321.694, 319.500 321.428 C 301.350 321.280, 285.484 321.379, 284.242 321.650 M 557.250 321.724 L 550 322.088 550 384.571 L 550 447.053 564.750 446.777 L 579.500 446.500 579.767 420.750 L 580.034 395 609.017 395 L 638 395 638 421 L 638 447 652.500 447 L 667 447 667 384.607 C 667 328.635, 666.837 322.152, 665.418 321.607 C 663.342 320.810, 645.132 320.824, 641.125 321.625 L 638 322.250 638 346.125 L 638 370 609.018 370 L 580.036 370 579.768 345.750 L 579.500 321.500 572 321.430 C 567.875 321.391, 561.237 321.524, 557.250 321.724 M 858.750 321.745 L 850 322.078 850 384.566 L 850 447.055 864.250 446.777 L 878.500 446.500 878.762 409.750 C 878.965 381.301, 879.304 373.018, 880.262 373.079 C 880.943 373.122, 893.200 387.322, 907.500 404.633 C 921.800 421.944, 935.673 438.559, 938.330 441.554 L 943.160 447 955.080 447 L 967 447 967 384.617 L 967 322.233 964.750 321.630 C 961.830 320.848, 943.170 320.848, 940.250 321.630 L 938 322.233 938 358.190 C 938 388.985, 937.793 394.100, 936.559 393.823 C 935.766 393.645, 922.043 377.750, 906.063 358.500 C 890.083 339.250, 875.994 322.944, 874.754 322.265 C 873.514 321.585, 871.375 321.115, 870 321.220 C 868.625 321.325, 863.563 321.561, 858.750 321.745 M 1075.750 321.574 C 1075.338 321.992, 1075 350.395, 1075 384.693 L 1075 447.053 1089.750 446.777 L 1104.500 446.500 1104.773 428.750 L 1105.046 411 1118.475 411 L 1131.904 411 1143.702 428.750 L 1155.500 446.500 1170.750 446.776 C 1183.960 447.015, 1186 446.845, 1186 445.506 C 1186 444.656, 1180.575 435.840, 1173.944 425.917 C 1167.314 415.993, 1161.663 407.285, 1161.387 406.566 C 1161.087 405.784, 1162.665 404.214, 1165.309 402.665 C 1171.694 398.923, 1179.470 389.963, 1182.162 383.247 C 1184.094 378.425, 1184.467 375.649, 1184.482 366 C 1184.497 355.500, 1184.257 353.984, 1181.722 348.570 C 1175.766 335.849, 1166.165 327.944, 1151.775 323.916 C 1144.042 321.751, 1141.306 321.574, 1110 321.208 C 1091.575 320.992, 1076.162 321.157, 1075.750 321.574 M 1208.459 322.250 C 1208.196 322.938, 1208.098 351.175, 1208.241 385 L 1208.500 446.500 1223.227 446.777 L 1237.955 447.053 1238.227 385.777 C 1238.377 352.074, 1238.335 323.712, 1238.133 322.750 C 1237.805 321.181, 1236.274 321, 1223.352 321 C 1212.742 321, 1208.811 321.330, 1208.459 322.250 M 175.594 331.250 C 160.250 364.330, 124 444.817, 124 445.805 C 124 446.678, 128.012 447, 138.891 447 L 153.782 447 157.819 437.750 C 160.039 432.663, 162.612 426.587, 163.536 424.250 L 165.217 420 195.165 420 L 225.114 420 228.539 427.750 C 230.423 432.012, 233.210 437.975, 234.732 441 L 237.500 446.500 252.750 446.776 C 262.667 446.956, 268 446.694, 268 446.028 C 268 445.465, 263.892 436.116, 258.871 425.252 C 253.850 414.388, 246.242 397.850, 241.964 388.500 C 237.687 379.150, 230.976 364.525, 227.052 356 C 223.128 347.475, 218.049 336.337, 215.766 331.250 L 211.614 322 195.749 322 L 179.884 322 175.594 331.250 M 749 345.367 C 736.950 347.996, 728.202 355.133, 722.638 366.877 C 719.740 372.993, 719.500 374.304, 719.500 384 C 719.500 393.729, 719.734 394.994, 722.686 401.225 C 736.652 430.706, 780.172 430.892, 793.616 401.528 C 802.692 381.703, 794.931 357.451, 776.660 348.543 C 767.713 344.182, 759.014 343.183, 749 345.367 M 312 366.597 L 312 387.194 329.750 386.820 C 345.722 386.483, 347.920 386.224, 351.692 384.232 C 366.139 376.603, 366.213 355.770, 351.818 348.597 C 346.812 346.102, 345.928 346, 329.304 346 L 312 346 312 366.597 M 1105 366.500 L 1105 387 1119.750 386.976 C 1135.847 386.949, 1141.861 386.010, 1146.590 382.787 C 1157.095 375.626, 1157.793 358.154, 1147.869 350.780 C 1142.312 346.650, 1138.704 346, 1121.351 346 L 1105 346 1105 366.500 M 191.716 358.750 C 185.750 372.163, 177 393.969, 177 395.425 C 177 396.802, 179.331 397, 195.500 397 C 211.543 397, 214 396.794, 214 395.450 C 214 392.741, 196.596 353, 195.410 353 C 194.785 353, 193.122 355.587, 191.716 358.750" stroke="none" fill="#00327e" fill-rule="evenodd"/><path d="M 1 384 L 1 767 688 767 L 1375 767 1375 384 L 1375 1 688 1 L 1 1 1 384 M 1138.749 242.076 C 1117.743 244.677, 1094.543 253.448, 1076.074 265.772 C 1063.958 273.857, 1045.984 292.024, 1037.696 304.561 C 1026.471 321.543, 1018.903 340.507, 1015.602 359.926 C 1013.503 372.276, 1013.488 396.539, 1015.573 408.455 C 1025.799 466.921, 1071.241 512.841, 1130.500 524.593 C 1144.041 527.278, 1171.164 527.088, 1184.500 524.215 C 1198.861 521.120, 1205.914 518.666, 1219.672 511.974 C 1260.331 492.197, 1289.821 452.638, 1297.554 407.500 C 1299.797 394.402, 1299.780 373.662, 1297.514 360.500 C 1292.277 330.072, 1279.270 305.138, 1257.062 282.948 C 1236.290 262.194, 1216.162 251.113, 1187 244.381 C 1174.896 241.587, 1151.662 240.477, 1138.749 242.076 M 463.500 320.407 C 454.899 322.087, 443.841 326.203, 438.500 329.712 C 431.550 334.278, 421.938 344.263, 418.006 351 C 411.348 362.408, 409.492 369.649, 409.551 384 C 409.595 394.827, 409.952 397.504, 412.220 404 C 415.821 414.316, 419.308 420.187, 426.224 427.580 C 433.648 435.516, 440.967 440.398, 450.853 444.006 C 472.491 451.902, 499.054 449.918, 515.578 439.170 C 522.369 434.753, 530 427.620, 530 425.690 C 530 424.470, 514.081 409.922, 511.908 409.155 C 511.370 408.965, 508.887 410.693, 506.390 412.995 C 491.147 427.045, 466.463 426.867, 451.208 412.598 C 435.554 397.955, 435.361 370.797, 450.801 355.357 C 465.318 340.840, 491.794 340.702, 506.538 355.066 C 508.759 357.230, 510.938 359, 511.381 359 C 512.794 359, 530 342.773, 530 341.440 C 530 339.143, 518.665 329.962, 511.500 326.456 C 507.650 324.572, 501.800 322.334, 498.500 321.484 C 489.964 319.285, 472.064 318.734, 463.500 320.407 M 746.477 319.919 C 738.390 321.218, 730.125 323.913, 722.560 327.715 C 712.582 332.731, 700.593 344.884, 695.643 355 C 679.923 387.132, 692.891 425.990, 724.474 441.390 C 736.188 447.102, 742.658 448.429, 758.500 448.371 C 770.393 448.327, 773.706 447.952, 780.513 445.879 C 798.766 440.318, 813.489 428.253, 820.822 412.846 C 826.055 401.854, 827.471 395.575, 827.441 383.500 C 827.396 365.702, 821.447 351.220, 809.114 338.885 C 800.611 330.381, 792.030 325.427, 779.821 321.978 C 771.667 319.674, 754.574 318.619, 746.477 319.919 M 284.242 321.650 L 281.985 322.141 282.242 384.321 L 282.500 446.500 297 446.500 L 311.500 446.500 311.773 428.750 L 312.046 411 325.773 411.037 L 339.500 411.074 351.410 429.037 L 363.321 447 378.660 447 C 392.067 447, 394 446.798, 394 445.397 C 394 444.515, 388.114 435.251, 380.921 424.810 C 373.727 414.368, 367.990 405.725, 368.171 405.602 C 368.352 405.480, 370.839 403.912, 373.697 402.119 C 388.950 392.552, 396.198 373.697, 391.522 355.746 C 387.257 339.370, 378.066 330.058, 360.500 324.314 C 352.614 321.736, 352.028 321.694, 319.500 321.428 C 301.350 321.280, 285.484 321.379, 284.242 321.650 M 557.250 321.782 L 550 322.088 550 384.571 L 550 447.053 564.750 446.777 L 579.500 446.500 579.767 420.750 L 580.034 395 609.017 395 L 638 395 638 421 L 638 447 652.500 447 L 667 447 667 384.607 C 667 328.635, 666.837 322.152, 665.418 321.607 C 663.342 320.810, 645.132 320.824, 641.125 321.625 L 638 322.250 638 346.125 L 638 370 609.018 370 L 580.036 370 579.768 345.750 L 579.500 321.500 572 321.489 C 567.875 321.482, 561.237 321.615, 557.250 321.782 M 858.750 321.745 L 850 322.078 850 384.566 L 850 447.055 864.250 446.777 L 878.500 446.500 878.762 409.171 C 878.906 388.640, 879.393 371.990, 879.843 372.171 C 880.292 372.352, 893.172 387.575, 908.464 406 C 923.755 424.425, 937.873 441.188, 939.836 443.250 L 943.406 447 955.203 447 L 967 447 967 384.545 L 967 322.091 963.664 321.465 C 961.225 321.007, 940.485 321.394, 938.250 321.939 C 938.112 321.973, 938 338.425, 938 358.500 C 938 378.575, 937.634 395, 937.187 395 C 936.739 395, 922.745 378.616, 906.090 358.591 C 888.727 337.716, 874.888 321.936, 873.653 321.605 C 872.469 321.287, 870.600 321.114, 869.500 321.219 C 868.400 321.325, 863.563 321.561, 858.750 321.745 M 1075.750 321.574 C 1075.338 321.992, 1075 350.395, 1075 384.693 L 1075 447.053 1089.750 446.777 L 1104.500 446.500 1104.773 428.750 L 1105.046 411 1118.475 411 L 1131.904 411 1143.702 428.750 L 1155.500 446.500 1171.367 446.776 C 1184.957 447.012, 1187.153 446.842, 1186.673 445.589 C 1186.364 444.784, 1180.686 436.007, 1174.056 426.083 C 1167.425 416.160, 1162 407.234, 1162 406.248 C 1162 405.217, 1163.521 403.636, 1165.576 402.529 C 1171.173 399.515, 1179.537 389.802, 1182.148 383.285 C 1184.096 378.421, 1184.467 375.668, 1184.482 366 C 1184.497 355.500, 1184.257 353.984, 1181.722 348.570 C 1175.766 335.849, 1166.165 327.944, 1151.775 323.916 C 1144.042 321.751, 1141.306 321.574, 1110 321.208 C 1091.575 320.992, 1076.162 321.157, 1075.750 321.574 M 1208.459 322.250 C 1208.196 322.938, 1208.098 351.175, 1208.241 385 L 1208.500 446.500 1223.227 446.777 L 1237.955 447.053 1238.227 385.777 C 1238.377 352.074, 1238.335 323.712, 1238.133 322.750 C 1237.805 321.181, 1236.274 321, 1223.352 321 C 1212.742 321, 1208.811 321.330, 1208.459 322.250 M 175.594 331.250 C 160.250 364.330, 124 444.817, 124 445.805 C 124 446.678, 128.012 447, 138.891 447 L 153.782 447 157.819 437.750 C 160.039 432.663, 162.612 426.587, 163.536 424.250 L 165.217 420 195.165 420 L 225.114 420 228.539 427.750 C 230.423 432.012, 233.210 437.975, 234.732 441 L 237.500 446.500 252.750 446.776 C 262.667 446.956, 268 446.694, 268 446.028 C 268 445.465, 263.892 436.116, 258.871 425.252 C 253.850 414.388, 246.242 397.850, 241.964 388.500 C 237.687 379.150, 230.976 364.525, 227.052 356 C 223.128 347.475, 218.049 336.337, 215.766 331.250 L 211.614 322 195.749 322 L 179.884 322 175.594 331.250 M 749 345.367 C 736.950 347.996, 728.202 355.133, 722.638 366.877 C 719.740 372.993, 719.500 374.304, 719.500 384 C 719.500 393.729, 719.734 394.994, 722.686 401.225 C 736.652 430.706, 780.172 430.892, 793.616 401.528 C 802.692 381.703, 794.931 357.451, 776.660 348.543 C 767.713 344.182, 759.014 343.183, 749 345.367 M 312 366.597 L 312 387.194 329.750 386.820 C 345.722 386.483, 347.920 386.224, 351.692 384.232 C 366.139 376.603, 366.213 355.770, 351.818 348.597 C 346.812 346.102, 345.928 346, 329.304 346 L 312 346 312 366.597 M 1105 366.500 L 1105 387 1119.750 386.976 C 1135.847 386.949, 1141.861 386.010, 1146.590 382.787 C 1157.095 375.626, 1157.793 358.154, 1147.869 350.780 C 1142.312 346.650, 1138.704 346, 1121.351 346 L 1105 346 1105 366.500 M 193.341 354.741 C 192.734 356.258, 188.584 366.216, 184.119 376.869 C 179.653 387.522, 176 396.409, 176 396.619 C 176 396.828, 184.775 397, 195.500 397 C 206.225 397, 215 396.815, 215 396.590 C 215 395.123, 196.156 352.552, 195.394 352.298 C 194.872 352.124, 193.949 353.223, 193.341 354.741" stroke="none" fill="#ffffff" fill-rule="evenodd"/></svg>